<?xml version="1.0" encoding="utf-8"?>
<!-- Generator: Adobe Illustrator 18.0.0, SVG Export Plug-In . SVG Version: 6.00 Build 0)  -->
<!DOCTYPE svg PUBLIC "-//W3C//DTD SVG 1.1//EN" "http://www.w3.org/Graphics/SVG/1.1/DTD/svg11.dtd">
<svg version="1.1" id="Layer_2" xmlns="http://www.w3.org/2000/svg" xmlns:xlink="http://www.w3.org/1999/xlink" x="0px" y="0px"
	 viewBox="0 0 162 74" enable-background="new 0 0 162 74" xml:space="preserve">
<g>
	<g>
		<g>
			<path fill="#FFFFFF" d="M136.9,45.6L136.9,45.6c-1.2,1.4-2.5,2.3-4.4,2.3c-2.2,0-4-1.6-4-3.6c0-1.8,0.8-2.9,3.1-4.3
				c0.2-0.1,0.3-0.1,0.5,0l4.8,5c0.1,0.1,0.1,0.2,0.1,0.3c0,0,0,0,0,0C137,45.5,137,45.6,136.9,45.6z M133.7,29.6
				c1.5,0,2.3,1.1,2.3,2.3c0,1.5-1.3,2.4-3,3.3l-0.1,0c-0.1,0.1-0.3,0-0.4-0.1c0,0,0,0,0,0c-0.7-0.8-1.5-2-1.5-2.9
				C131,30.8,132.1,29.6,133.7,29.6z M146.6,49.8l-4.6-4.7c-0.1-0.1-0.2-0.3-0.1-0.5c0,0,3.5-5.8,3.5-5.8c0.1-0.2,0.1-0.3,0.1-0.3
				c0-0.4-0.3-0.7-0.7-0.7l-2.5,0c-0.3,0-0.5,0.1-0.6,0.3l-2.2,3.8c-0.1,0.1-0.3,0.2-0.5,0.1c0,0-3.6-3.7-3.6-3.7
				c-0.1-0.1-0.1-0.1-0.1-0.2c0-0.1,0-0.2,0.1-0.3l0,0c2-1.2,4.3-2.9,4.3-5.9c0-3.5-2.5-5.8-6.2-5.8c-3.6,0-6.4,2.4-6.4,6.1
				c0,1.6,0.7,3.2,2,4.9c0,0,0,0,0,0c0.1,0.1,0.1,0.2,0.1,0.2c0,0.1-0.1,0.2-0.1,0.2c-3,1.7-4.6,4-4.6,6.8c0,4.7,4,7.2,7.9,7.2
				c2.7,0,4.8-1,6.8-3.3c0,0,0,0,0,0c0.1-0.1,0.3-0.1,0.5,0l2.4,2.5c0,0,0.1,0.1,0.1,0.1c0.1,0.1,0.3,0.2,0.5,0.2h3.2
				c0.4,0,0.7-0.3,0.7-0.7C146.7,50.1,146.7,49.9,146.6,49.8L146.6,49.8z"/>
			<path fill="#FFFFFF" d="M121.7,47.9c0,0-0.1,0-0.1,0c-3.7,0-5.5-1.9-5.5-5.8V30.9c0-0.2,0.2-0.4,0.4-0.4h5.7
				c0.4,0,0.7-0.3,0.7-0.7v-2.5c0-0.4-0.3-0.7-0.7-0.7h-5.7c-0.2,0-0.4-0.2-0.4-0.4v-5.2c0-0.4-0.3-0.7-0.7-0.7h-0.1l-2.9,0.2
				c-0.4,0-0.7,0.3-0.7,0.7v5c0,0.2-0.2,0.4-0.4,0.4l-3.6,0c-0.4,0-0.7,0.3-0.7,0.7l0,2.5c0,0.2,0.1,0.4,0.2,0.5
				c0.1,0.1,0.3,0.2,0.5,0.2h3.6c0.2,0,0.4,0.2,0.4,0.4l0,12c0,6.4,4.8,8.7,9.1,8.7c0,0,0.5,0,0.9,0c0.4,0,0.7-0.3,0.7-0.7l0-2.4
				C122.3,48.2,122,47.9,121.7,47.9z"/>
			<path fill="#FFFFFF" d="M100.8,40.7c-0.6,4.1-2.6,6.5-6.3,7.1c-2.6,0.4-5-0.6-5.1-3.5c-0.1-3.1,3.4-5.7,10.1-5.4
				c0,0,0.5,0,0.8,0.1c0.3,0,0.5,0.1,0.6,0.3C101,39.4,101,39.7,100.8,40.7z M105.3,50c-0.2-0.7-0.3-1.4-0.3-1.7c0-0.2,0-1.2,0-1.2
				l0-11.9c0-6.3-4.4-8.5-8.6-8.5c-3.3,0-6.3,0.9-8.2,2.2c-0.2,0.1-0.3,0.3-0.3,0.4c0,0.2,0,0.4,0.1,0.5c0,0,1.5,2.1,1.5,2.1
				c0.2,0.3,0.6,0.4,0.9,0.1c0,0,0.2-0.1,0.2-0.1c1.5-0.9,3.3-1.5,5.1-1.5c5.1,0,5,4,5,4.5c0,0.3-0.2,0.3-0.4,0.3l-0.8,0
				c-4-0.1-14.1,1.2-14.1,9.2c0,4.7,3.9,7.1,7.6,7.1c3.5,0,6.4-1.4,7.8-3.1l0,0c0,0,0,0,0.1,0c0.1,0,0.1,0,0.1,0.1
				c0,0.2,0,0.7,0,1.1c0,0.4,0.1,0.7,0.2,0.9c0.1,0.2,0.2,0.4,0.4,0.5c0.1,0,0.2,0.1,0.3,0.1c0,0,2.8,0,2.8,0c0.4,0,0.7-0.3,0.7-0.7
				C105.4,50.3,105.3,50,105.3,50z"/>
			<path fill="#FFFFFF" d="M160.2,47.9c0,0-0.1,0-0.1,0c-3.7,0-5.5-1.9-5.5-5.8V30.9c0-0.2,0.2-0.4,0.4-0.4h5.7
				c0.4,0,0.7-0.3,0.7-0.7v-2.5c0-0.4-0.3-0.7-0.7-0.7h-5.7c-0.2,0-0.4-0.2-0.4-0.4v-5.2c0-0.4-0.3-0.7-0.7-0.7h-0.1
				c0,0-2.9,0.2-2.9,0.2c-0.4,0-0.7,0.3-0.7,0.7v5c0,0.2-0.2,0.4-0.4,0.4l-3.6,0c-0.4,0-0.7,0.3-0.7,0.7l0,2.5
				c0,0.2,0.1,0.4,0.2,0.5c0.1,0.1,0.3,0.2,0.5,0.2h3.6c0.2,0,0.4,0.2,0.4,0.4v12c0,6.4,4.8,8.7,9.1,8.7c0,0,0.5,0,0.9,0
				c0.4,0,0.7-0.3,0.7-0.7l0-2.4C160.9,48.2,160.6,47.9,160.2,47.9z"/>
		</g>
	</g>
</g>
<path fill="#FFFFFF" d="M16,9.9c0.3,3.6,9.8,6.4,21.3,6.1c11.5-0.3,20.4-3.6,20.4-7.2c0-1-0.8-2-2.1-2.8C50.2,3,44,1.2,37.3,1.2
	c-6.9,0-13.4,2-18.9,5.4C16.8,7.6,15.9,8.8,16,9.9z M26.3,27.8c3.8,0.5,13.8,1.9,21.6,1.2c15.7-1.3,19.2-6.8,19.2-10.3
	c0-1-0.5-2.4-1.1-3.2c-1.4-1.8-3-3.5-4.7-5.1c0.4,0.5,0.6,1.1,0.6,1.5c0.1,2.4-3.8,5.7-11.8,8.3c-5,1.7-11.6,3.3-19.8,3.3
	c-13.8,0-18.6-5.2-18.6-8.5c0-0.3-0.1-3.2,3.1-5.8c-2.9,2.3-5.5,5.1-7.6,8.3c-0.2,0.4-0.4,0.8-0.4,1.3C6.9,22,15.1,26.4,26.3,27.8z
	 M14.6,51.9c7.8,3.2,20.1,5.6,27.2,5.3C67,56.3,72.7,43.5,73.2,39.8c0.1-0.9,0.1-1.8,0.1-2.6c0-2.9-0.4-5.8-1-8.5
	c0.3,1.2,0.3,2.3,0.3,2.9c0,1.2,0.2,12.3-25,17.9c-15.1,3.4-21.5,3.3-31.9,0C6.6,46.6,1.6,39.9,1.5,34.2c-0.1,1-0.1,2-0.1,3
	c0,0.8,0,1.6,0.1,2.4C2.1,44.4,8.3,49.3,14.6,51.9z M35.8,69.5c-5.5,0-17.4-0.9-25.2-8.2c6.6,7.3,16.1,11.9,26.7,11.9
	c13.8,0,25.8-7.8,31.8-19.1C67.3,57.3,59,69.5,35.8,69.5z M36.6,62.2C32,62.7,5.6,63.9,1.8,43c0.5,3.3,1.5,6.5,2.9,9.5
	c1.7,3,5.8,7.1,11.7,9.5c30.9,12.8,50-2.4,53.7-10c1.5-3.3,2.5-6.8,2.9-10.4C72.6,44.4,69.8,58.5,36.6,62.2z M2.7,27.4
	c0.6-2.1,1.3-4,2.2-5.9c-0.4,1-0.6,2-0.6,3.6c0,8.8,19,17.4,42.2,11.1c9.1-2.5,22.6-7.2,22.6-14.5c0-0.4,0.2-1.2-1-3.3
	c1.5,2.5,2.7,5.1,3.6,7.9c0.4,1.5,0.4,2.5,0.4,2.9c0,1.8-2.2,12.7-24,14.7c-1.9,0.2-15.7,0.4-27.8-2.7c-8-2-16.1-5.9-17.6-11.4
	C2.4,28.9,2.5,28.2,2.7,27.4z"/>
</svg>
