<?xml version="1.0" encoding="utf-8"?>
<!-- Generator: Adobe Illustrator 21.0.0, SVG Export Plug-In . SVG Version: 6.00 Build 0)  -->
<svg version="1.1" id="Layer_1" xmlns="http://www.w3.org/2000/svg" xmlns:xlink="http://www.w3.org/1999/xlink" x="0px" y="0px"
	 viewBox="0 0 422.2 387.3" style="enable-background:new 0 0 422.2 387.3;" xml:space="preserve">
<style type="text/css">
	.st0{opacity:0.4;}
	.st1{fill:#F7D875;}
	.st2{fill:#82EAED;}
	.st3{fill:#FE8681;}
	.st4{fill:#81D069;}
	.st5{fill:#F7B674;}
	.st6{fill:#EB7EF5;}
	.st7{fill:#F5AB60;}
	.st8{fill:#5EC9F5;}
</style>
<title>artboard</title>
<g class="st0">
	<g id="layer1_1_">
		<path id="path2417_1_" class="st1" d="M419.8,251.9c-1.3-1.5-4.6-4.3-7.3-6.4c-8-6-9.1-6.9-12.3-9.9c-6-5.5-8.5-11-8.5-18.6
			c0-3.7,0.3-5.1,1.3-7.2c1.7-3.7,4.3-6.4,7.6-8.1c2.3-1.2,3.5-1.7,7.3-1.7c4.1,0,4.9,0.5,7.3,1.8c2.9,1.6,5.9,5,6.5,7.4l0.4,1.5
			l0.9-2.1c5.3-11.6,22.3-11.5,28.2,0.3c1.9,3.7,2.1,11.7,0.4,16.2c-2.2,5.9-6.2,10.3-15.7,17.2c-6.2,4.5-13.2,11.3-13.6,12.2
			C421.7,255.6,422.3,254.7,419.8,251.9z"/>
		<g id="g2221_1_" transform="translate(129.28571,-64.285714)">
		</g>
	</g>
	<g id="layer1_2_">
		<path id="path2417_2_" class="st2" d="M78.2,199.5c-2-2.3-7.1-6.7-11.3-9.8c-12.3-9.3-14-10.7-19-15.3c-9.2-8.5-13.1-17-13.1-28.6
			c0-5.7,0.4-7.8,2-11.2c2.7-5.7,6.6-9.9,11.7-12.4c3.6-1.8,5.3-2.6,11.3-2.7c6.3,0,7.6,0.7,11.3,2.7c4.5,2.5,9.1,7.7,10,11.5
			l0.6,2.3l1.5-3.2c8.2-18,34.4-17.7,43.5,0.4c2.9,5.8,3.2,18,0.6,25c-3.3,9-9.6,15.9-24.1,26.5c-9.5,6.9-20.3,17.4-21,18.8
			C81.2,205.2,82,203.8,78.2,199.5z"/>
		<g id="g2221_2_" transform="translate(129.28571,-64.285714)">
		</g>
	</g>
	<g id="layer1_3_">
		<path id="path2417_3_" class="st3" d="M141.4,88c-0.7-0.8-2.6-2.4-4.1-3.6c-4.5-3.4-5.1-3.9-6.9-5.6c-3.4-3.1-4.8-6.2-4.8-10.4
			c0-2.1,0.1-2.9,0.7-4.1c1-2.1,2.4-3.6,4.3-4.5c1.3-0.7,1.9-1,4.1-1c2.3,0,2.8,0.3,4.1,1c1.6,0.9,3.3,2.8,3.7,4.2l0.2,0.8l0.5-1.2
			c3-6.5,12.5-6.4,15.8,0.2c1.1,2.1,1.2,6.6,0.2,9.1c-1.2,3.3-3.5,5.8-8.8,9.6c-3.5,2.5-7.4,6.3-7.7,6.9
			C142.5,90.1,142.8,89.6,141.4,88z"/>
		<g id="g2221_3_" transform="translate(129.28571,-64.285714)">
		</g>
	</g>
	<g id="layer1_5_">
		<path id="path2417_5_" class="st1" d="M-2.4,256.5c-1.3-1.5-4.6-4.3-7.3-6.4c-8-6-9.1-6.9-12.3-9.9c-6-5.5-8.5-11-8.5-18.6
			c0-3.7,0.3-5.1,1.3-7.2c1.7-3.7,4.3-6.4,7.6-8.1c2.3-1.2,3.5-1.7,7.3-1.7c4.1,0,4.9,0.5,7.3,1.8c2.9,1.6,5.9,5,6.5,7.4l0.4,1.5
			l0.9-2.1c5.3-11.6,22.3-11.5,28.2,0.3c1.9,3.7,2.1,11.7,0.4,16.2c-2.2,5.9-6.2,10.3-15.7,17.2c-6.2,4.5-13.2,11.3-13.6,12.2
			C-0.5,260.2,0.1,259.3-2.4,256.5z"/>
		<g id="g2221_5_" transform="translate(129.28571,-64.285714)">
		</g>
	</g>
	<g id="layer1_6_">
		<path id="path2417_6_" class="st3" d="M275.1,258.4c-2-2.3-7.1-6.7-11.3-9.8c-12.3-9.3-14-10.7-19-15.3
			c-9.2-8.5-13.1-17-13.1-28.6c0-5.7,0.4-7.8,2-11.2c2.7-5.7,6.6-9.9,11.7-12.4c3.6-1.8,5.3-2.6,11.3-2.7c6.3,0,7.6,0.7,11.3,2.7
			c4.5,2.5,9.1,7.7,10,11.5l0.6,2.3l1.5-3.2c8.2-18,34.4-17.7,43.5,0.4c2.9,5.8,3.2,18,0.6,25c-3.3,9-9.6,15.9-24.1,26.5
			c-9.5,6.9-20.3,17.4-21,18.8C278.1,264.1,279,262.7,275.1,258.4z"/>
		<g id="g2221_6_" transform="translate(129.28571,-64.285714)">
		</g>
	</g>
	<g id="layer1_7_">
		<path id="path2417_7_" class="st4" d="M222.7,365.1c-0.7-0.8-2.6-2.4-4.1-3.6c-4.5-3.4-5.1-3.9-6.9-5.6c-3.4-3.1-4.8-6.2-4.8-10.4
			c0-2.1,0.1-2.9,0.7-4.1c1-2.1,2.4-3.6,4.3-4.5c1.3-0.7,1.9-1,4.1-1c2.3,0,2.8,0.3,4.1,1c1.6,0.9,3.3,2.8,3.7,4.2l0.2,0.8l0.5-1.2
			c3-6.5,12.5-6.4,15.8,0.2c1.1,2.1,1.2,6.6,0.2,9.1c-1.2,3.3-3.5,5.8-8.8,9.6c-3.5,2.5-7.4,6.3-7.7,6.9
			C223.8,367.2,224.1,366.7,222.7,365.1z"/>
		<g id="g2221_7_" transform="translate(129.28571,-64.285714)">
		</g>
	</g>
	<g id="layer1_8_">
		<path id="path2417_8_" class="st4" d="M390.3,119.3c-0.7-0.8-2.6-2.4-4.1-3.6c-4.5-3.4-5.1-3.9-6.9-5.6c-3.4-3.1-4.8-6.2-4.8-10.4
			c0-2.1,0.1-2.9,0.7-4.1c1-2.1,2.4-3.6,4.3-4.5c1.3-0.7,1.9-1,4.1-1c2.3,0,2.8,0.3,4.1,1c1.6,0.9,3.3,2.8,3.7,4.2l0.2,0.8l0.5-1.2
			c3-6.5,12.5-6.4,15.8,0.2c1.1,2.1,1.2,6.6,0.2,9.1c-1.2,3.3-3.5,5.8-8.8,9.6c-3.5,2.5-7.4,6.3-7.7,6.9
			C391.4,121.4,391.7,120.9,390.3,119.3z"/>
		<g id="g2221_8_" transform="translate(129.28571,-64.285714)">
		</g>
	</g>
	<g id="layer1_9_">
		<path id="path2417_9_" class="st5" d="M135,297.3c-1.4-1.5-4.8-4.5-7.6-6.7c-8.3-6.3-9.5-7.2-12.9-10.3
			c-6.2-5.7-8.9-11.5-8.9-19.3c0-3.8,0.3-5.3,1.3-7.5c1.8-3.8,4.5-6.7,7.9-8.4c2.4-1.2,3.6-1.8,7.7-1.8c4.2,0,5.1,0.5,7.6,1.8
			c3,1.7,6.1,5.2,6.8,7.7l0.4,1.6l1-2.1c5.5-12.1,23.2-12,29.4,0.3c2,3.9,2.2,12.2,0.4,16.9c-2.3,6.1-6.5,10.8-16.3,17.9
			c-6.4,4.7-13.7,11.7-14.2,12.7C137,301.1,137.6,300.2,135,297.3z"/>
		<g id="g2221_9_" transform="translate(129.28571,-64.285714)">
		</g>
	</g>
	<g id="layer1_10_">
		<path id="path2417_10_" class="st6" d="M171.4,222c-0.5-0.6-1.9-1.8-3-2.6c-3.2-2.5-3.7-2.8-5-4c-2.4-2.2-3.5-4.5-3.5-7.5
			c0-1.5,0.1-2.1,0.5-2.9c0.7-1.5,1.7-2.6,3.1-3.3c0.9-0.5,1.4-0.7,3-0.7s2,0.2,3,0.7c1.2,0.6,2.4,2,2.6,3l0.2,0.6l0.4-0.8
			c2.2-4.7,9.1-4.7,11.5,0.1c0.8,1.5,0.8,4.7,0.2,6.6c-0.9,2.4-2.5,4.2-6.4,7c-2.5,1.8-5.3,4.6-5.5,5
			C172.2,223.5,172.4,223.1,171.4,222z"/>
		<g id="g2221_10_" transform="translate(129.28571,-64.285714)">
		</g>
	</g>
	<g id="layer1_11_">
		<path id="path2417_11_" class="st7" d="M11.4,102.7c-0.5-0.6-1.9-1.8-3-2.6c-3.2-2.5-3.7-2.8-5-4C1,93.8,0,91.6,0,88.5
			c0-1.5,0.1-2.1,0.5-2.9c0.7-1.5,1.7-2.6,3.1-3.3c0.9-0.5,1.4-0.7,3-0.7s2,0.2,3,0.7c1.2,0.6,2.4,2,2.6,3l0.2,0.6l0.4-0.8
			c2.2-4.7,9.1-4.7,11.5,0.1c0.8,1.5,0.8,4.7,0.2,6.6c-0.9,2.4-2.5,4.2-6.4,7c-2.5,1.8-5.3,4.6-5.5,5
			C12.2,104.2,12.4,103.8,11.4,102.7z"/>
		<g id="g2221_11_" transform="translate(129.28571,-64.285714)">
		</g>
	</g>
	<g id="layer1_12_">
		<path id="path2417_12_" class="st1" d="M346.1,72.7c-1.3-1.5-4.6-4.3-7.3-6.4c-8-6-9.1-6.9-12.3-9.9c-6-5.5-8.5-11-8.5-18.6
			c0-3.7,0.3-5.1,1.3-7.2c1.7-3.7,4.3-6.4,7.6-8.1c2.3-1.2,3.5-1.7,7.3-1.7c4.1,0,4.9,0.5,7.3,1.8c2.9,1.6,5.9,5,6.5,7.4l0.4,1.5
			l0.9-2.1c5.3-11.6,22.3-11.5,28.2,0.3c1.9,3.7,2.1,11.7,0.4,16.2c-2.2,5.9-6.2,10.3-15.7,17.2c-6.2,4.5-13.2,11.3-13.6,12.2
			C348,76.4,348.6,75.5,346.1,72.7z"/>
		<g id="g2221_12_" transform="translate(129.28571,-64.285714)">
		</g>
	</g>
	<g id="layer1_13_">
		<path id="path2417_13_" class="st8" d="M235,145.4c-1.3-1.5-4.6-4.3-7.3-6.4c-8-6-9.1-6.9-12.3-9.9c-6-5.5-8.5-11-8.5-18.6
			c0-3.7,0.3-5.1,1.3-7.2c1.7-3.7,4.3-6.4,7.6-8.1c2.3-1.2,3.5-1.7,7.3-1.7c4.1,0,4.9,0.5,7.3,1.8c2.9,1.6,5.9,5,6.5,7.4l0.4,1.5
			l0.9-2.1c5.3-11.6,22.3-11.5,28.2,0.3c1.9,3.7,2.1,11.7,0.4,16.2c-2.2,5.9-6.2,10.3-15.7,17.2c-6.2,4.5-13.2,11.3-13.6,12.2
			C237,149.2,237.5,148.2,235,145.4z"/>
		<g id="g2221_13_" transform="translate(129.28571,-64.285714)">
		</g>
	</g>
	<g id="layer1_14_">
		<path id="path2417_14_" class="st8" d="M358.7,332.9c-1.3-1.5-4.6-4.3-7.3-6.4c-8-6-9.1-6.9-12.3-9.9c-6-5.5-8.5-11-8.5-18.6
			c0-3.7,0.3-5.1,1.3-7.2c1.7-3.7,4.3-6.4,7.6-8.1c2.3-1.2,3.5-1.7,7.3-1.7c4.1,0,4.9,0.5,7.3,1.8c2.9,1.6,5.9,5,6.5,7.4l0.4,1.5
			l0.9-2.1c5.3-11.6,22.3-11.5,28.2,0.3c1.9,3.7,2.1,11.7,0.4,16.2c-2.2,5.9-6.2,10.3-15.7,17.2c-6.2,4.5-13.2,11.3-13.6,12.2
			C360.7,336.6,361.2,335.7,358.7,332.9z"/>
		<g id="g2221_14_" transform="translate(129.28571,-64.285714)">
		</g>
	</g>
</g>
</svg>
