<svg xmlns="http://www.w3.org/2000/svg" xmlns:xlink="http://www.w3.org/1999/xlink" viewBox="60 60 410 170">
    <g opacity=".53">
        <path d="M228 166h86v64h-86z" fill="#d99a5b"/>
        <path d="M314 197.8L283 230h31z" opacity=".05"/>
        <path d="M260 166h22v16h-22z" fill="#e3b384"/>
        <path d="M292 166h86v64h-86z" fill="#b97d4a"/>
        <path d="M292 166h64v64h-64z" fill="#d99a5b"/>
        <path d="M378 197.8L346.8 230H378z" opacity=".05"/>
        <path d="M314 166h16v16h-16z" fill="#e3b384"/>
        <path d="M378 166h86v64h-86z" fill="#d99a5b"/>
        <path d="M420 166h44v64h-44z" fill="#b97d4a"/>
        <path d="M464 197.6L432.4 230H464z" opacity=".05"/>
        <path d="M440 166h12v16h-12z" fill="#d5a57f"/>
        <path d="M433 194.8h22.6l-.2 13.4h-11.6v2.2h-4v-2.2h-6.6zm1.4 11l2.6.4V200h1.2v6h1.2v-8.8h-5zm6-8.8v11.2h2.6V206h2.6v-8.8zm2.6 2.6h1.4v3.6H443zm3.8-2.6v8.8l2.6.4V200h1.2v6h1.2v-6h1.2v6h1.2v-8.8zm-143.4-2.2h37.8l-.2 13.4h-19.2v2.2h-8v-2.2h-10.6zm2.2 11l4.2.4V200h2.2v6h2v-8.8h-8.4zm10-8.8v11.2h4.4V206h4.2l-.2-8.8zm4.6 2.6h2.2v3.6h-2.2zm6.4-2.6v8.8l4.2.4V200h2v6h2v-6h2v6h2v-8.8zm-75.2-2.2h37.8l-.2 13.4h-19.2v2.2h-8v-2.2h-10.6zm2.2 11l4.2.4V200h2.2v6h2v-8.8h-8.4zm10-8.8v11.2h4.4V206h4.2l-.2-8.8zm4.6 2.6h2.2v3.6h-2.2zm6.4-2.6v8.8l4.2.4V200h2v6h2v-6h2v6h2v-8.8z" fill="#1b130e"/>
        <path d="M234 108h78v58h-78z" fill="#b97d4a"/>
        <path d="M234 108h60v58h-60z" fill="#d99a5b"/>
        <path d="M312 136.4L284.6 166H312z" opacity=".05"/>
        <path d="M254 108h16v14h-16z" fill="#e3b384"/>
        <path d="M251.4 135.2l-.4 9.2h7v1.4h6v-1.4h13.2l.2-9.2zm7 1.2v5.6H257v-4h-1.4v4.6l-2.8.2-.2-6.2zm17.2 0v5.6h-1.4v-4h-1.4v4h-1.4v-4H270v4.6l-2.8.2v-6zm-10 .2l.2 6.2h-3v1.6h-3v-7.6zm-2.8 1.8v2.6h1.6v-2.6z" fill="#1b130e"/>
        <path d="M310 80h44v32h-44z" fill="#d99a5b"/>
        <path d="M342 80h12v32h-12z" fill="#b97d4a"/>
        <path d="M354 95.8L338.4 112H354z" opacity=".05"/>
        <path d="M348 80h2v8h-2z" fill="#d5a57f"/>
        <path d="M294 112h72v54h-72z" fill="#b97d4a"/>
        <path d="M294 112h36v54h-36z" fill="#d99a5b"/>
        <path d="M366 139.4L340.6 166H366z" opacity=".05"/>
        <path d="M304 112h10v14h-10z" fill="#e3b384"/>
        <path d="M464.6 166h-42.8l-43.8 1.2V166h-12v-54h-12V80h-44v28h-76v58h-6v64h148v1.6l45.8-1.6h42.8l-.6-.2v-64.4z" opacity=".05" fill="#fff"/>
        <path d="M350.8 168H310v-2h-82v64h128v-62z" opacity=".1"/>
        <path d="M303.2 138.6H316v6.4h-6.6v1h-2.8v-1H303zm.8 5.4l1.4.2v-3h.8v2.8h.6v-4.2H304zm3.4-4.2v5.4h1.6V144h1.4v-4.2zm1.6 1.2h.8v1.8h-.8zm2-1.2v4.2l1.4.2v-3h.6v2.8h.6v-2.8h.6v2.8h.6v-4.2z" fill="#1b130e"/>
    </g>
    <path d="M114 214v-34" fill="none"/>
    <path d="M112 146h92v70h-92z" fill="#d99a5b"/>
    <path d="M158 146h46v70h-46z" fill="#b97d4a"/>
    <path d="M172 178h24v14h-12v2h-6v-2h-6zm0 12h4v-8 8h2v-10h-6zm8.8-10v12h1.2v-2h4v-10zm2.2 2h2v4h-2zm3-2v10h4v-8h2v8-8h2v8h2v-10z" fill="#1b130e"/>
    <path d="M204 181.2L170.2 216H204z" opacity=".05"/>
    <path d="M178 146h12v18h-12z" fill="#d5a57f"/>
    <path d="M112 214v2h92.6l-.6-.6v-68.6l.6-.8H114" opacity=".05" fill="#fff"/>
    <path d="M186.6 60.2l6.2 7.4-6.6 7.4-11-.4s4.2-8.8 11.4-14.4z" fill="#976844"/>
    <path d="M191.4 69.2l1.4-1.6-6.2-7.4-.6 10z" fill="#885d3d"/>
    <path d="M243.8 77.4l-9.2 2.8L236 90l9.4 5.8s1.2-9.8-1.6-18.4z" fill="#976844"/>
    <path d="M235 82.4l-.4-2.2 9.2-2.8-5 8.6z" fill="#885d3d"/>
    <g transform="scale(2)">
        <defs>
            <path id="a" d="M77 43c7.5-8.8 20.4-12.4 31.1-9.2 10.7 3.2 16 13.1 17.4 24.6 1.4 11.4-2 21.7-2 21.7-11.4 8.5-32.3 4-32.3 4s-20-12.6-24.9-26c.1 0 3.2-6.3 10.7-15.1z"/>
        </defs>
        <clipPath id="b">
            <use xlink:href="#a" overflow="visible"/>
        </clipPath>
        <path clip-path="url(#b)" d="M77 43c7.5-8.8 20.4-12.4 31.1-9.2 10.7 3.2 16 13.1 17.4 24.6 1.4 11.4-2 21.7-2 21.7-11.4 8.5-32.3 4-32.3 4s-20-12.6-24.9-26c.1 0 3.2-6.3 10.7-15.1z" fill="#976844"/>
        <defs>
            <path id="c" d="M77 43c7.5-8.8 20.4-12.4 31.1-9.2 10.7 3.2 16 13.1 17.4 24.6 1.4 11.4-2 21.7-2 21.7-11.4 8.5-32.3 4-32.3 4s-20-12.6-24.9-26c.1 0 3.2-6.3 10.7-15.1z"/>
        </defs>
        <clipPath id="d">
            <use xlink:href="#c" overflow="visible"/>
        </clipPath>
        <path clip-path="url(#d)" d="M127.7 46.4l-6.8-2.4s6.2 17.5-3 31.9c0 0-11.7 6-22.4 5.1l22.8 5.4 8.9-4.6z" opacity=".05"/>
    </g>
    <g transform="scale(2)">
        <ellipse transform="rotate(-73.26 83.748 60.58)" cx="83.7" cy="60.6" rx="4.3" ry="8.8" fill="#885d3d"/>
        <ellipse transform="rotate(-73.26 83.967 59.822)" cx="84" cy="59.8" rx="4.3" ry="8.8"/>
        <path d="M94.5 58.5c-.3 1 .3 2.1 1.3 2.4 1 .3 2.1-.3 2.4-1.3.3-1-.3-2.1-1.3-2.4-1-.3-2.1.3-2.4 1.3z" fill="#b58463"/>
        <circle transform="rotate(-73.26 95.887 59.327)" cx="95.9" cy="59.3" r="1.4"/>
        <circle transform="rotate(-73.26 95.516 59.493)" cx="95.5" cy="59.5" r=".5" fill="#fff"/>
        <path d="M79.3 53.9c-.3 1-1.4 1.6-2.4 1.3-1-.3-1.6-1.4-1.3-2.4.3-1 1.4-1.6 2.4-1.3 1 .3 1.6 1.3 1.3 2.4z" fill="#b58463"/>
        <circle transform="rotate(-73.26 77.46 53.776)" cx="77.5" cy="53.8" r="1.4"/>
        <circle transform="rotate(-73.26 77.82 54.09)" cx="77.8" cy="54.1" r=".5" fill="#fff"/>
    </g>
    <g transform="scale(2)">
        <defs>
            <path id="e" d="M67 96.7s-4.2 8.3 6.8 18.3h3.6s18.1-1.5 19.8-15.1c-.1 0-18.8-13-30.2-3.2z"/>
        </defs>
        <clipPath id="f">
            <use xlink:href="#e" overflow="visible"/>
        </clipPath>
        <path clip-path="url(#f)" d="M67 96.7s-4.2 8.3 6.8 18.3h3.6s18.1-1.5 19.8-15.1c-.1 0-18.8-13-30.2-3.2z" fill="#885d3d"/>
        <defs>
            <path id="g" d="M67 96.7s-4.2 8.3 6.8 18.3h3.6s18.1-1.5 19.8-15.1c-.1 0-18.8-13-30.2-3.2z"/>
        </defs>
        <clipPath id="h">
            <use xlink:href="#g" overflow="visible"/>
        </clipPath>
        <path clip-path="url(#h)" d="M66.8 96.1c0 .2-2.2 16.9 17 18z" opacity=".05"/>
        <path d="M69.9 114.5c0 .8 2 1 4 1s3.6.2 3.6-.6-2-2.1-4-2.1-3.6.9-3.6 1.7z" fill="#7a5436"/>
        <path d="M114.2 83.1c.6 8.1 6.2 7.9 6.7 16.4.3 5.1-8.5 17.1-29.9 15.6-21.3-1.5-25.8-12.6-23.1-23.7 2.7-11.1 12.3-22.3 12.3-22.3s33.4 5.8 34 14z" fill="#b58463"/>
        <defs>
            <path id="i" d="M93.6 100.5c1.7-7 11.7-9 11.7-9l.9-7.9s8.2 2 10 5c1.9 3 5.1 5.4 4.6 11.7-1.2 13.7-11.7 15.7-11.7 15.7H104c-9.6-5-10.9-13.6-10.4-15.5z"/>
        </defs>
        <clipPath id="j">
            <use xlink:href="#i" overflow="visible"/>
        </clipPath>
        <path clip-path="url(#j)" d="M93.6 100.5c1.7-7 11.7-9 11.7-9l.9-7.9s8.2 2 10 5c1.9 3 5.1 5.4 4.6 11.7-1.2 13.7-11.7 15.7-11.7 15.7H104c-9.6-5-10.9-13.6-10.4-15.5z" fill="#976844"/>
        <defs>
            <path id="k" d="M93.6 100.5c1.7-7 11.7-9 11.7-9l.9-7.9s8.2 2 10 5c1.9 3 5.1 5.4 4.6 11.7-1.2 13.7-11.7 15.7-11.7 15.7H104c-9.6-5-10.9-13.6-10.4-15.5z"/>
        </defs>
        <clipPath id="l">
            <use xlink:href="#k" overflow="visible"/>
        </clipPath>
        <path clip-path="url(#l)" d="M120.7 88.3l-4.7 3.1s5.4 15.1-7 24.5l9.6.3 7.1-21.8z" opacity=".05"/>
        <path d="M101.2 115.5c0 .8 2.1 1 4.1 1 2.1 0 3.8.2 3.8-.6s-2.1-2.1-4.1-2.1c-2.1 0-3.8.8-3.8 1.7z" fill="#7a5436"/>
        <path d="M120.3 95.2s-4.9-1.1-5.8-1c-.9 0-.8-.6-.8-.6l1.1-.8z" opacity=".1"/>
        <defs>
            <path id="m" d="M114.2 79.7s3.1 5.4 3.8 7.7c.7 2.3 2.6 5.9 2.5 6.4-.1.5.3.5.3.8 0 .3-.4.6-.4.6s-9.7-3.4-18.3-4c-8.6-.6-13.9-5.8-19.8-6.4-5.9-.6-7.6.4-7.6.4s-.2-.6 0-.9c0 0-.2-.5-.1-.7.1-.2.5-.3.5-.3s-.1-4.6 7-12.7c-.1.1 20 .8 32.1 9.1z"/>
        </defs>
        <clipPath id="n">
            <use xlink:href="#m" overflow="visible"/>
        </clipPath>
        <path clip-path="url(#n)" d="M114.2 79.7s3.1 5.4 3.8 7.7c.7 2.3 2.6 5.9 2.5 6.4-.1.5.3.5.3.8 0 .3-.4.6-.4.6s-9.7-3.4-18.3-4c-8.6-.6-13.9-5.8-19.8-6.4-5.9-.6-7.6.4-7.6.4s-.2-.6 0-.9c0 0-.2-.5-.1-.7.1-.2.5-.3.5-.3s-.1-4.6 7-12.7c-.1.1 20 .8 32.1 9.1z" fill="#bc3231"/>
        <defs>
            <path id="o" d="M114.2 79.7s3.1 5.4 3.8 7.7c.7 2.3 2.6 5.9 2.5 6.4-.1.5.3.5.3.8 0 .3-.4.6-.4.6s-9.7-3.4-18.3-4c-8.6-.6-13.9-5.8-19.8-6.4-5.9-.6-7.6.4-7.6.4s-.2-.6 0-.9c0 0-.2-.5-.1-.7.1-.2.5-.3.5-.3s-.1-4.6 7-12.7c-.1.1 20 .8 32.1 9.1z"/>
        </defs>
        <clipPath id="p">
            <use xlink:href="#o" overflow="visible"/>
        </clipPath>
        <path clip-path="url(#p)" d="M110.4 75.5l-8.2-2s3 8.9 3.1 9.2c.1.3-2.3 5.9-2.3 5.9l-1.9 2.9 20 4.3 1.5-3.7z" opacity=".1"/>
        <defs>
            <path id="q" d="M114.2 79.7s3.1 5.4 3.8 7.7c.7 2.3 2.6 5.9 2.5 6.4-.1.5.3.5.3.8 0 .3-.4.6-.4.6s-9.7-3.4-18.3-4c-8.6-.6-13.9-5.8-19.8-6.4-5.9-.6-7.6.4-7.6.4s-.2-.6 0-.9c0 0-.2-.5-.1-.7.1-.2.5-.3.5-.3s-.1-4.6 7-12.7c-.1.1 20 .8 32.1 9.1z"/>
        </defs>
        <clipPath id="r">
            <use xlink:href="#q" overflow="visible"/>
        </clipPath>
        <path clip-path="url(#r)" d="M120.7 88.3l-.3 3.2s.1 1.7-1.3 1.2c-1.3-.6-4.8-1.5-4.7-1.3.1.2 6 2.6 6.5 2.9.5.4-.2-6-.2-6z" opacity=".1"/>
    </g>
    <path d="M113 188.6s3.8 3 6.6 3.4c2.8.4 4.4-.6 4.4-.6z" fill="#976844"/>
    <path d="M228.8 189.8s-15.4 23.6-38.6 21.6l-.2.8-12-1.8s-8 1-9.4.4L133 197s.2-1.2.6-2c.8-2.2 1.6-5.8 2.6-6.2 1-.8 92.6 1 92.6 1zm-18.6-46.6l2 2-2 8.8-6.6-1.8z" opacity=".1"/>
    <path d="M85.42 179.88l24.212-78.344 104.52 32.306-24.212 78.344z" fill="#b97d4a"/>
    <path d="M85.388 179.908l24.212-78.34 78.346 24.212-24.214 78.34z" fill="#d99a5b"/>
    <path d="M113.4 142.2l43.2 12.6-4.4 15.2-21.6-6.4-.6 2.6-9.6-2.8.8-2.4-12-3.6zm-1.2 13.4l4.8 1.4 2.2-7.6 2.4.8-2.2 7.6 2.4.6 3-10-9.6-2.8zm15-6.8l-3.6 12.8 4.8 1.4.8-2.6 4.8 1.4 3-10.2zm4 4l2.6.8-1.6 5.2-2.6-.8zm8-.4l-3 10 4.8 1.4 2.2-7.6 2.4.6-2.2 7.6 2.4.6 2.2-7.6 2.4.8-2.2 7.8 2.4.6 3-10z" fill="#1b130e"/>
    <path d="M129.946 129.284l6.084-19.68 20.636 6.38-6.08 19.68z" fill="#e3b384"/>
    <path d="M208.2 153.4s-5.8 2.6-10.8 11c0 0-1 .4-.8 1.2l-2.6 3.2v.6s-3.8 4.4-11.2 18.6c-7.4 14.2-13.4 18-13.4 18l34.2-16z" opacity=".1"/>
    <g transform="scale(2)">
        <defs>
            <path id="s" d="M100.9 80.5s-.5 1.3-2.8 4.3c-5.7 7.4-5.6 11.5-13.3 18.2l-1-.3s.2.7 1.4 1c10.3 2.6 18.8.8 23.8-3.1 5.1-4 8.7-8.3 9-21.1-7.7-12.8-17.1 1-17.1 1z"/>
        </defs>
        <clipPath id="t">
            <use xlink:href="#s" overflow="visible"/>
        </clipPath>
        <path clip-path="url(#t)" d="M81 106.1l21.6-32.2 10.8-5.6 5.6 3.1 1.1 16.5-4.2 10.6-7.1 6.4c0 .1-21.5 7.4-27.8 1.2z" fill="#885d3d"/>
        <defs>
            <path id="u" d="M100.9 80.5s-.5 1.3-2.8 4.3c-5.7 7.4-5.6 11.5-13.3 18.2l-1-.3s.2.7 1.4 1c10.3 2.6 18.8.8 23.8-3.1 5.1-4 8.7-8.3 9-21.1-7.7-12.8-17.1 1-17.1 1z"/>
        </defs>
        <clipPath id="v">
            <use xlink:href="#u" overflow="visible"/>
        </clipPath>
        <path clip-path="url(#v)" d="M84.2 109.3l-.6-5.5s30.6 1.2 31.8-25l5.2.4-1.8 17.2s-18.7 15.5-34.6 12.9z" opacity=".05"/>
        <defs>
            <path id="w" d="M99.7 82.2L98 84.7s7.2 11.4 16.7 10.3c0 0 1-1.4 1.1-1.7 0-.1-11.2-3-16.1-11.1z"/>
        </defs>
        <clipPath id="x">
            <use xlink:href="#w" overflow="visible"/>
        </clipPath>
        <path clip-path="url(#x)" d="M99.6 80.8L97 85.3s8.1 10.7 17.6 9.6c0 0 1-1.4 1.1-1.7.1 0-11.1-4.3-16.1-12.4z" fill="#a52828"/>
        <defs>
            <path id="y" d="M99.7 82.2L98 84.7s7.2 11.4 16.7 10.3c0 0 1-1.4 1.1-1.7 0-.1-11.2-3-16.1-11.1z"/>
        </defs>
        <clipPath id="z">
            <use xlink:href="#y" overflow="visible"/>
        </clipPath>
        <path clip-path="url(#z)" d="M109.9 94.8s1.9-2.1 2.2-3.1c.3-1 3.8.5 3.8.5l.3.9-.8 2.3z" opacity=".1"/>
        <defs>
            <path id="A" d="M99 83.1s7.1 10.9 16.6 10.5c0 0 .4 0 .5-.1.3-.3 7-13.7-1.8-18.9-7.9-4.7-15.3 7.9-15.3 8-.2.2-.2.3 0 .5z"/>
        </defs>
        <clipPath id="B">
            <use xlink:href="#A" overflow="visible"/>
        </clipPath>
        <path clip-path="url(#B)" d="M98.1 84.8s7.6 9.8 17.1 9.4c0 0 .9.1 1.1 0 .3-.3 7.4-14.2-2-19.6-9.4-5.4-16.1 8.8-16.1 8.8s-.3 1.2-.1 1.4z" fill="#cb3836"/>
        <defs>
            <path id="C" d="M99 83.1s7.1 10.9 16.6 10.5c0 0 .4 0 .5-.1.3-.3 7-13.7-1.8-18.9-7.9-4.7-15.3 7.9-15.3 8-.2.2-.2.3 0 .5z"/>
        </defs>
        <clipPath id="D">
            <use xlink:href="#C" overflow="visible"/>
        </clipPath>
        <path clip-path="url(#D)" d="M110.2 94s7.5-7 8.3-13c.8-6 4.3 2.7 4.3 2.7l-4.6 8-2.8 3.2z" opacity=".1"/>
    </g>
</svg>
